HIERARCHY
ROOT Hips
{
 OFFSET 0.000000 0.000000 0.000000
 CHANNELS 6 Xposition Yposition Zposition Yrotation Xrotation Zrotation
 JOINT Chest
 {
  OFFSET 0.000000 9.588913 -0.003946
  CHANNELS 3 Yrotation Xrotation Zrotation
  JOINT Chest2
  {
   OFFSET 0.000000 9.541882 0.008053
   CHANNELS 3 Yrotation Xrotation Zrotation
   JOINT Chest3
   {
    OFFSET 0.000000 9.501360 0.000000
    CHANNELS 3 Yrotation Xrotation Zrotation
    JOINT Chest4
    {
     OFFSET 0.000000 9.491660 0.000000
     CHANNELS 3 Yrotation Xrotation Zrotation
     JOINT Neck
     {
      OFFSET 0.000000 14.331917 0.000000
      CHANNELS 3 Yrotation Xrotation Zrotation
      JOINT Head
      {
       OFFSET 0.000000 8.884799 0.017034
       CHANNELS 3 Yrotation Xrotation Zrotation
       End Site
       {
        OFFSET 0.000000 16.896195 0.008993
       }
      }
     }
     JOINT RightCollar
     {
      OFFSET -2.923010 9.499495 0.000000
      CHANNELS 3 Yrotation Xrotation Zrotation
      JOINT RightShoulder
      {
       OFFSET -13.795216 0.000000 0.000000
       CHANNELS 3 Yrotation Xrotation Zrotation
       JOINT RightElbow
       {
        OFFSET -30.272209 0.000000 0.000000
        CHANNELS 3 Yrotation Xrotation Zrotation
        JOINT RightWrist
        {
         OFFSET -24.478199 0.000000 0.000000
         CHANNELS 3 Yrotation Xrotation Zrotation
         End Site
         {
          OFFSET -18.090752 0.000000 0.000000
         }
        }
       }
      }
     }
     JOINT LeftCollar
     {
      OFFSET 2.923010 9.499495 0.000000
      CHANNELS 3 Yrotation Xrotation Zrotation
      JOINT LeftShoulder
      {
       OFFSET 13.795216 0.000000 0.000000
       CHANNELS 3 Yrotation Xrotation Zrotation
       JOINT LeftElbow
       {
        OFFSET 30.272209 0.000000 0.000000
        CHANNELS 3 Yrotation Xrotation Zrotation
        JOINT LeftWrist
        {
         OFFSET 24.478199 0.000000 0.000000
         CHANNELS 3 Yrotation Xrotation Zrotation
         End Site
         {
          OFFSET 18.090752 0.000000 0.000000
         }
        }
       }
      }
     }
    }
   }
  }
 }
 JOINT RightHip
 {
  OFFSET -7.826875 0.019532 0.001973
  CHANNELS 3 Yrotation Xrotation Zrotation
  JOINT RightKnee
  {
   OFFSET 0.000000 -40.546152 -0.001885
   CHANNELS 3 Yrotation Xrotation Zrotation
   JOINT RightAnkle
   {
    OFFSET 0.000000 -39.417092 -0.003189
    CHANNELS 3 Yrotation Xrotation Zrotation
    JOINT RightToe
    {
     OFFSET 0.000000 -7.579396 17.243563
     CHANNELS 3 Yrotation Xrotation Zrotation
     End Site
     {
      OFFSET 0.000000 -1.500329 6.694466
     }
    }
   }
  }
 }
 JOINT LeftHip
 {
  OFFSET 7.826875 0.019532 0.001973
  CHANNELS 3 Yrotation Xrotation Zrotation
  JOINT LeftKnee
  {
   OFFSET 0.000000 -40.546152 -0.001885
   CHANNELS 3 Yrotation Xrotation Zrotation
   JOINT LeftAnkle
   {
    OFFSET 0.000000 -39.417092 -0.003189
    CHANNELS 3 Yrotation Xrotation Zrotation
    JOINT LeftToe
    {
     OFFSET 0.000000 -7.579396 17.243563
     CHANNELS 3 Yrotation Xrotation Zrotation
     End Site
     {
      OFFSET 0.000000 -1.500329 6.694466
     }
    }
   }
  }
 }
}
MOTION
Frames: 17
Frame Time: 0.008333
0.000000 87.345680 0.000000 0.000000 -5.767889 0.000000 0.000000 11.653876 0.000000 0.000000 -5.885988 0.000000 0.000000 -0.000000 0.000000 0.000000 -0.000000 0.000000 0.000000 12.528808 0.000000 0.000000 0.711711 0.000000 0.000000 -0.000000 0.000000 0.000000 -0.000000 0.000000 2.309063 -0.000000 0.000000 -2.309063 -0.000000 -0.000000 0.000000 -0.000000 0.000000 0.000000 0.000000 0.000000 -2.309063 0.000000 0.000000 2.309063 -0.000000 0.000000 0.000000 8.520374 0.000000 0.000000 1.905768 0.000000 -0.000000 -4.658254 0.000000 0.000000 -0.000000 0.000000 0.000000 8.520374 0.000000 0.000000 1.905768 0.000000 -0.000000 -4.658254 0.000000 0.000000 -0.000000 0.000000
0.527258 88.530530 19.822166 -49.336308 -4.386907 0.018534 2.777692 2.316041 -0.018395 1.578904 1.325747 -0.088254 1.973443 1.657525 -0.104612 1.578904 1.325747 -0.088254 2.179561 26.971404 -0.570850 2.519189 3.883979 -1.121866 -2.174669 1.257092 -1.565201 -4.843392 2.789449 90.700303 1.487117 -3.461325 -0.976746 -0.331511 -1.058486 0.032898 2.350785 1.678974 3.455037 13.108493 5.611000 -84.836593 -0.967377 -4.074369 0.954902 0.676502 9.458762 0.683148 -17.561635 12.196015 -7.838454 -5.508607 -2.224611 -0.230226 6.494679 -4.646062 3.676352 0.025224 0.149303 0.024249 3.916174 9.584270 8.177498 1.618531 2.707010 1.008131 4.254226 -5.898823 -6.571358 -0.033474 -0.098282 -0.003856
0.532233 88.532067 19.818353 -49.287385 -4.409189 0.024864 2.780211 2.315156 -0.027291 1.581148 1.326340 -0.094058 1.976226 1.658291 -0.111856 1.581148 1.326340 -0.094057 2.153107 26.940311 -0.543779 2.483591 3.842983 -1.086084 -2.152778 1.209839 -1.562672 -4.795614 2.807104 90.633095 1.506228 -3.312196 -0.969152 -0.384661 -0.999446 0.046939 2.311213 1.630565 3.416735 12.920072 5.500557 -84.915129 -1.226031 -4.078186 0.755762 0.470443 9.339772 0.756429 -17.596918 12.216980 -7.847138 -5.518951 -2.227966 -0.235460 6.480897 -4.642023 3.672323 0.028118 0.144997 0.026285 3.898947 9.604125 8.174682 1.605891 2.686885 1.003058 4.236177 -5.881808 -6.568193 -0.035091 -0.103956 -0.003318
0.538830 88.533671 19.813360 -49.246911 -4.429459 0.031684 2.786088 2.314235 -0.036860 1.585490 1.326577 -0.099851 1.981633 1.658613 -0.119081 1.585490 1.326577 -0.099851 2.127143 26.909247 -0.519907 2.449280 3.802150 -1.053932 -2.131652 1.165989 -1.560045 -4.760123 2.816265 90.566282 1.527330 -3.171161 -0.960388 -0.446558 -0.946678 0.076712 2.279727 1.583828 3.384092 12.710783 5.375353 -85.003895 -1.491835 -4.084144 0.539490 0.281470 9.223598 0.782713 -17.627913 12.236028 -7.855213 -5.529699 -2.237026 -0.241988 6.473747 -4.634257 3.670386 0.029788 0.141837 0.027313 3.889804 9.621062 8.171976 1.593431 2.667663 0.997255 4.217018 -5.864972 -6.565064 -0.036695 -0.109516 -0.002434
0.546573 88.535218 19.807427 -49.213208 -4.448748 0.036655 2.794862 2.313714 -0.046121 1.591759 1.326561 -0.104778 1.989452 1.658616 -0.125218 1.591759 1.326561 -0.104778 2.101945 26.877793 -0.499317 2.416569 3.760951 -1.025560 -2.113326 1.130407 -1.558402 -4.728974 2.812924 90.499224 1.549098 -3.047970 -0.949724 -0.512720 -0.895015 0.120976 2.247017 1.539532 3.352832 12.495598 5.235731 -85.098548 -1.768586 -4.095580 0.304632 0.116119 9.115452 0.765062 -17.658058 12.252981 -7.859070 -5.539009 -2.247348 -0.249586 6.461751 -4.624686 3.669303 0.029445 0.139852 0.026918 3.882963 9.635802 8.169722 1.583427 2.651307 0.993404 4.199336 -5.850137 -6.564013 -0.038163 -0.114203 -0.000951
0.555043 88.536594 19.800896 -49.190092 -4.468619 0.038719 2.807419 2.313891 -0.054418 1.600609 1.326541 -0.108599 2.000503 1.658610 -0.129962 1.600609 1.326542 -0.108599 2.078461 26.847145 -0.480955 2.386269 3.720912 -1.000029 -2.094479 1.105523 -1.557268 -4.698278 2.798366 90.430281 1.576667 -2.948214 -0.935163 -0.581200 -0.839165 0.173275 2.208781 1.498596 3.320484 12.281758 5.085711 -85.194618 -2.064448 -4.112914 0.048269 -0.017201 9.018989 0.709191 -17.684215 12.267912 -7.858755 -5.544075 -2.254947 -0.255753 6.440775 -4.615516 3.666155 0.027456 0.139288 0.025930 3.879053 9.651081 8.168745 1.577055 2.637740 0.992129 4.184203 -5.838407 -6.564496 -0.039667 -0.117849 0.000124
0.564489 88.537685 19.794059 -49.176568 -4.488221 0.039198 2.823713 2.314264 -0.061808 1.611697 1.326828 -0.111719 2.014352 1.658984 -0.133820 1.611697 1.326828 -0.111718 2.055625 26.817804 -0.464783 2.357206 3.682628 -0.977054 -2.075027 1.084685 -1.555568 -4.673537 2.784208 90.358404 1.620371 -2.862294 -0.917291 -0.651189 -0.780944 0.232149 2.170053 1.459845 3.285671 12.069703 4.928870 -85.287095 -2.385746 -4.132942 -0.231593 -0.114152 8.951526 0.622481 -17.706952 12.281168 -7.860001 -5.544914 -2.262636 -0.259141 6.429421 -4.606795 3.661166 0.025750 0.139398 0.025804 3.879259 9.666346 8.168109 1.571443 2.625575 0.992365 4.172277 -5.829092 -6.564764 -0.041024 -0.120452 0.000236
0.575193 88.538440 19.787108 -49.168209 -4.506919 0.039335 2.842105 2.314372 -0.068270 1.623827 1.327260 -0.114369 2.029505 1.659540 -0.137088 1.623827 1.327261 -0.114369 2.032728 26.790027 -0.451490 2.328760 3.646411 -0.957228 -2.057114 1.062740 -1.554219 -4.661863 2.779637 90.285530 1.684522 -2.779407 -0.896436 -0.718107 -0.723983 0.294765 2.131415 1.422371 3.246203 11.868682 4.772072 -85.370206 -2.740063 -4.147247 -0.535835 -0.171053 8.918001 0.511245 -17.726241 12.294154 -7.864268 -5.543715 -2.273659 -0.260580 6.431716 -4.597404 3.655661 0.024999 0.139622 0.026627 3.879054 9.680497 8.166539 1.563384 2.614839 0.992546 4.167405 -5.821300 -6.564543 -0.041841 -0.122129 0.000230
0.587039 88.538917 19.780424 -49.161351 -4.527009 0.040239 2.861351 2.314479 -0.074034 1.636556 1.327824 -0.116748 2.045409 1.660259 -0.140013 1.636556 1.327825 -0.116748 2.009954 26.764969 -0.440554 2.301021 3.613717 -0.940017 -2.043395 1.041394 -1.553269 -4.663535 2.782875 90.214127 1.765730 -2.696608 -0.874332 -0.777586 -0.677251 0.354251 2.086080 1.387189 3.201241 11.688932 4.620906 -85.440200 -3.130447 -4.147073 -0.863596 -0.187420 8.901678 0.375084 -17.741100 12.309800 -7.868303 -5.541953 -2.287933 -0.262251 6.427599 -4.586928 3.650331 0.023720 0.140677 0.027054 3.873453 9.696380 8.162894 1.556026 2.604529 0.991651 4.168234 -5.813840 -6.563483 -0.042047 -0.123169 0.000514
0.599880 88.539222 19.774118 -49.154165 -4.549716 0.042300 2.880424 2.315267 -0.079579 1.649162 1.328884 -0.118951 2.061160 1.661596 -0.142716 1.649162 1.328884 -0.118951 1.988404 26.742052 -0.430466 2.274847 3.583816 -0.924019 -2.032665 1.018229 -1.549991 -4.675181 2.790540 90.141995 1.860524 -2.618782 -0.850535 -0.827591 -0.643999 0.404298 2.033981 1.353251 3.151104 11.535286 4.475744 -85.496238 -3.553511 -4.127091 -1.214964 -0.170137 8.897437 0.215366 -17.753048 12.327131 -7.874090 -5.541071 -2.300836 -0.264290 6.422547 -4.578155 3.646358 0.022332 0.142409 0.026602 3.861859 9.715644 8.157047 1.554875 2.593240 0.989722 4.167744 -5.805770 -6.560224 -0.042230 -0.123713 0.000124
0.613776 88.539458 19.767803 -49.147340 -4.572931 0.045073 2.899382 2.316759 -0.085644 1.661211 1.330268 -0.121410 2.076213 1.663341 -0.145740 1.661211 1.330268 -0.121410 1.968989 26.719743 -0.418455 2.250588 3.554739 -0.906408 -2.023966 0.989097 -1.542342 -4.690410 2.801609 90.068192 1.963169 -2.557132 -0.823525 -0.861354 -0.617197 0.442451 1.981013 1.318670 3.100005 11.406484 4.338101 -85.542659 -4.010229 -4.083858 -1.587543 -0.127139 8.906283 0.041047 -17.762248 12.342481 -7.883453 -5.542649 -2.309637 -0.266240 6.431835 -4.572757 3.643967 0.022191 0.144038 0.026151 3.847183 9.736050 8.150017 1.558925 2.580317 0.986881 4.164234 -5.796492 -6.554827 -0.042400 -0.123746 -0.000978
0.628419 88.539757 19.761161 -49.141082 -4.595939 0.047257 2.918209 2.318765 -0.091836 1.672770 1.331656 -0.124129 2.090652 1.665091 -0.149091 1.672770 1.331656 -0.124129 1.952294 26.698103 -0.403205 2.228582 3.526559 -0.885875 -2.017563 0.956663 -1.534225 -4.700957 2.814632 89.997164 2.069869 -2.520780 -0.793771 -0.872916 -0.597128 0.472827 1.932374 1.282596 3.053803 11.298336 4.210623 -85.588248 -4.503227 -4.012535 -1.973919 -0.065984 8.920322 -0.139940 -17.769200 12.356602 -7.891270 -5.547270 -2.316716 -0.268909 6.442947 -4.567894 3.641498 0.022236 0.145364 0.025908 3.831546 9.758258 8.143965 1.564375 2.562607 0.982722 4.160117 -5.784624 -6.548966 -0.042116 -0.123045 -0.001467
0.643279 88.540261 19.754157 -49.139818 -4.619766 0.048459 2.936738 2.321248 -0.096833 1.684059 1.332897 -0.126550 2.104756 1.666657 -0.152070 1.684059 1.332897 -0.126550 1.939985 26.677897 -0.386782 2.211135 3.500325 -0.865065 -2.010725 0.926415 -1.529830 -4.700474 2.825902 89.930206 2.180454 -2.513475 -0.759983 -0.863855 -0.589665 0.502074 1.896662 1.245980 3.014012 11.204755 4.092748 -85.640525 -5.024658 -3.917715 -2.368670 -0.000012 8.940013 -0.323279 -17.770922 12.371428 -7.894076 -5.554945 -2.324168 -0.272355 6.443600 -4.560968 3.637102 0.020979 0.146766 0.025772 3.820451 9.783072 8.139541 1.569071 2.541548 0.977630 4.158868 -5.771029 -6.543171 -0.041432 -0.121999 -0.001362
0.658456 88.541027 19.746741 -49.143523 -4.642462 0.050308 2.954763 2.323132 -0.100878 1.694819 1.333514 -0.129005 2.118197 1.667443 -0.155097 1.694819 1.333514 -0.129005 1.931960 26.659527 -0.370502 2.198440 3.476561 -0.845394 -2.003998 0.900109 -1.526085 -4.689008 2.833765 89.864787 2.296721 -2.533887 -0.721565 -0.840722 -0.595508 0.531400 1.874944 1.210941 2.981499 11.117363 3.982497 -85.702737 -5.564649 -3.813649 -2.771021 0.055563 8.964063 -0.505359 -17.769132 12.385349 -7.897051 -5.563534 -2.333997 -0.274936 6.447643 -4.551784 3.631116 0.019661 0.148033 0.026310 3.813141 9.806026 8.133750 1.572632 2.522139 0.972561 4.163836 -5.757049 -6.536787 -0.040041 -0.121274 -0.001441
0.673880 88.542064 19.738779 -49.145037 -4.662707 0.052661 2.969879 2.323322 -0.105330 1.703671 1.333141 -0.131911 2.129253 1.666993 -0.158699 1.703671 1.333141 -0.131911 1.928331 26.643185 -0.353061 2.190320 3.455488 -0.825461 -1.997219 0.875387 -1.518959 -4.676895 2.842159 89.802130 2.422374 -2.575297 -0.680840 -0.812940 -0.603076 0.557876 1.862139 1.179221 2.956956 11.034261 3.876831 -85.772627 -6.116567 -3.706876 -3.178177 0.092146 8.981986 -0.689542 -17.770958 12.397655 -7.901127 -5.570536 -2.346531 -0.278518 6.459652 -4.540932 3.627417 0.018917 0.148462 0.025972 3.798534 9.824791 8.126390 1.579248 2.506192 0.966999 4.171459 -5.743009 -6.529977 -0.037806 -0.121036 -0.001531
0.689018 88.543365 19.730325 -49.142180 -4.682338 0.054467 2.980457 2.322160 -0.110078 1.710035 1.332016 -0.134820 2.137199 1.665602 -0.162317 1.710036 1.332016 -0.134820 1.928864 26.628690 -0.334700 2.186570 3.436869 -0.805477 -1.989409 0.849132 -1.512154 -4.673990 2.854996 89.748366 2.557139 -2.628755 -0.641793 -0.784396 -0.604017 0.582983 1.854992 1.152707 2.937548 10.954493 3.772150 -85.846511 -6.675647 -3.602969 -3.587382 0.105993 8.991007 -0.881126 -17.776292 12.410239 -7.901571 -5.577394 -2.359863 -0.284790 6.463932 -4.528872 3.626523 0.017781 0.148396 0.023560 3.774337 9.841596 8.119422 1.590952 2.493224 0.961333 4.175666 -5.729299 -6.523792 -0.035711 -0.121351 -0.001460
0.703749 88.544858 19.721562 -49.139636 -4.702084 0.057057 2.989521 2.320541 -0.114209 1.715637 1.330664 -0.137402 2.144192 1.663926 -0.165531 1.715637 1.330664 -0.137402 1.929881 26.615642 -0.317357 2.183599 3.420122 -0.786720 -1.985939 0.822167 -1.509782 -4.682035 2.869036 89.705500 2.700635 -2.685630 -0.605425 -0.757817 -0.607492 0.610012 1.846034 1.133311 2.920185 10.873873 3.666290 -85.923163 -7.238097 -3.508663 -3.997381 0.097237 8.987531 -1.077883 -17.780300 12.422556 -7.901449 -5.585358 -2.372327 -0.292225 6.467760 -4.517112 3.626510 0.016920 0.148290 0.020866 3.750903 9.857779 8.112180 1.603323 2.481565 0.956309 4.176332 -5.715441 -6.517354 -0.034656 -0.122359 -0.002114
